<?xml version="1.0" encoding="UTF-8" standalone="no"?>
<svg
   xmlns:dc="http://purl.org/dc/elements/1.1/"
   xmlns:cc="http://creativecommons.org/ns#"
   xmlns:rdf="http://www.w3.org/1999/02/22-rdf-syntax-ns#"
   xmlns:svg="http://www.w3.org/2000/svg"
   xmlns="http://www.w3.org/2000/svg"
   width="126.21794mm"
   height="28.099098mm"
   viewBox="0 0 126.21794 28.099098"
   version="1.1"
   id="svg8">
  <defs
     id="defs2">
    <rect
       x="55.057522"
       y="43.965836"
       width="57.997486"
       height="16.036169"
       id="rect1560" />
    <rect
       x="53.58754"
       y="44.500378"
       width="61.471992"
       height="11.358955"
       id="rect1553" />
    <rect
       x="10.441592"
       y="59.86198"
       width="65.624969"
       height="12.703212"
       id="rect1517-4" />
    <rect
       x="55.057522"
       y="43.965836"
       width="57.997486"
       height="16.036169"
       id="rect978" />
    <rect
       x="10.441592"
       y="59.86198"
       width="65.624969"
       height="12.703212"
       id="rect1005" />
    <rect
       x="53.58754"
       y="44.500378"
       width="61.471992"
       height="11.358955"
       id="rect1008" />
  </defs>
  <metadata
     id="metadata5">
    <rdf:RDF>
      <cc:Work
         rdf:about="">
        <dc:format>image/svg+xml</dc:format>
        <dc:type
           rdf:resource="http://purl.org/dc/dcmitype/StillImage" />
        <dc:title></dc:title>
      </cc:Work>
    </rdf:RDF>
  </metadata>
  <g
     id="layer12"
     style="display:none"
     transform="translate(-0.14316113,-0.54151047)">
    <rect
       style="opacity:1;fill:#666666;fill-opacity:1;stroke:none;stroke-width:1;stroke-miterlimit:4;stroke-dasharray:none"
       id="rect981"
       width="108.77869"
       height="49.444862"
       x="-0.80180895"
       y="-3.8754084" />
  </g>
  <g
     id="layer9"
     transform="translate(-0.14316113,-0.54151047)">
    <g
       id="g1346"
       transform="matrix(0.9767955,0,0,0.99355934,-13.970575,-30.006406)">
      <path
         style="fill:#13c6d5;fill-opacity:1;stroke:none;stroke-width:0.372255;stroke-linecap:butt;stroke-linejoin:bevel;stroke-miterlimit:2.1;stroke-dasharray:none;stroke-opacity:1;paint-order:stroke fill markers"
         d="m 50.036434,35.818393 -1.164042,-3.769156 -2.844391,2.53865 z"
         id="path1330" />
      <path
         style="fill:none;fill-opacity:1;stroke:#13c6d5;stroke-width:0.909;stroke-linecap:square;stroke-linejoin:miter;stroke-miterlimit:2.1;stroke-dasharray:none;stroke-opacity:1;paint-order:normal"
         id="path1342"
         d="M 51.45132,36.962685 A 14.064564,13.616234 0 0 1 49.31493,55.213443 14.064564,13.616234 0 0 1 30.347401,54.799265 14.064564,13.616234 0 0 1 29.063156,36.473813 14.064564,13.616234 0 0 1 47.799083,33.583151" />
    </g>
    <g
       id="g1358"
       transform="matrix(0.96484352,0,0,0.99799149,-10.878976,-30.28058)">
      <path
         style="fill:#c47caa;fill-opacity:1;stroke:none;stroke-width:0.372255;stroke-linecap:butt;stroke-linejoin:bevel;stroke-miterlimit:2.1;stroke-dasharray:none;stroke-opacity:1;paint-order:stroke fill markers"
         d="m 16.940215,34.171011 -0.776245,3.867684 -3.086921,-2.23746 z"
         id="path1348" />
      <path
         style="fill:none;fill-opacity:1;stroke:#c47caa;stroke-width:0.909;stroke-linecap:square;stroke-linejoin:miter;stroke-miterlimit:2.1;stroke-dasharray:none;stroke-opacity:1;paint-order:normal"
         id="path1350"
         d="m -14.552932,36.962685 a 14.064564,13.616234 0 0 1 -2.040571,18.169029 14.064564,13.616234 0 0 1 -18.877122,-0.163234 14.064564,13.616234 0 0 1 -1.705017,-18.201418 14.064564,13.616234 0 0 1 18.538813,-3.448281"
         transform="scale(-1,1)" />
    </g>
  </g>
  <g
     id="layer2"
     style="display:inline"
     transform="translate(-0.14316113,-0.54151047)">
    <path
       style="display:inline;fill:#3399ff;fill-opacity:1;stroke:#3399ff;stroke-width:0.264583px;stroke-linecap:butt;stroke-linejoin:miter;stroke-opacity:1"
       d="M 20.574352,1.4953386 31.754519,8.0443831 20.540663,14.787207 Z"
       id="path869" />
    <path
       style="display:inline;fill:#6699ff;fill-opacity:1;stroke:#6699ff;stroke-width:0.262208px;stroke-linecap:butt;stroke-linejoin:miter;stroke-opacity:1"
       d="m 20.617446,14.821872 11.238763,6.601932 V 8.2565251 Z"
       id="path871" />
    <path
       style="display:inline;fill:#9966ff;fill-opacity:1;stroke:#9966ff;stroke-width:0.264583px;stroke-linecap:butt;stroke-linejoin:miter;stroke-opacity:1"
       d="M 20.556877,14.94852 31.736628,21.616419 20.562609,28.00321 Z"
       id="path875" />
    <path
       style="display:inline;fill:#9933ff;fill-opacity:1;stroke:#9933ff;stroke-width:0.264583px;stroke-linecap:butt;stroke-linejoin:miter;stroke-opacity:1"
       d="M 20.310856,27.997133 9.1368351,21.35488 20.395564,14.873594 Z"
       id="path877" />
    <path
       style="display:inline;fill:#6633ff;fill-opacity:1;stroke:#6633ff;stroke-width:0.264583px;stroke-linecap:butt;stroke-linejoin:miter;stroke-opacity:1"
       d="M 9.0031991,21.130805 8.8671911,8.1780191 20.265636,14.767637 Z"
       id="path879" />
    <path
       style="display:inline;fill:#3366ff;fill-opacity:1;stroke:#3366ff;stroke-width:0.261847px;stroke-linecap:butt;stroke-linejoin:miter;stroke-opacity:1"
       d="M 8.9924891,7.9820991 20.298014,1.4743176 20.418695,14.608794 Z"
       id="path881" />
  </g>
  <g
     id="layer6"
     transform="translate(-0.14316113,-0.54151047)">
    <g
       id="g972"
       transform="matrix(0.6962165,0,0,0.74511092,-1.2855905,-16.370811)">
      <path
         style="fill:#000000;fill-opacity:1;stroke:#000000;stroke-width:0.167202px;stroke-linecap:butt;stroke-linejoin:miter;stroke-opacity:1"
         d="m 35.802635,55.771666 0.637489,0.02936 V 51.396058 L 35.93924,50.603161 Z"
         id="path910" />
      <path
         style="fill:#000000;fill-opacity:1;stroke:#000000;stroke-width:0.228407px;stroke-linecap:butt;stroke-linejoin:miter;stroke-opacity:1"
         d="m 36.79744,50.163831 -0.177904,0.197719 -0.290166,0.124568 c 0,0 1.257614,2.084619 1.649219,2.514813 0.453615,0.498316 -1.181149,-2.8371 -1.181149,-2.8371 z"
         id="path916" />
      <path
         style="fill:#000000;fill-opacity:1;fill-rule:nonzero;stroke:none;stroke-width:0.653936;stroke-miterlimit:3"
         id="path918"
         d="m 36.615927,49.778946 a 0.43431303,0.41760865 0 0 1 -0.434184,0.417609 0.43431303,0.41760865 0 0 1 -0.434442,-0.417361 0.43431303,0.41760865 0 0 1 0.433926,-0.417857 0.43431303,0.41760865 0 0 1 0.4347,0.417113" />
      <path
         style="fill:#000000;fill-opacity:1;stroke:#000000;stroke-width:0.228407px;stroke-linecap:butt;stroke-linejoin:miter;stroke-opacity:1"
         d="m 36.159275,49.1545 0.265313,0.01876 0.276634,0.152272 c 0,0 0.870979,-2.273462 0.969522,-2.846794 0.114147,-0.66412 -1.511469,2.675764 -1.511469,2.675764 z"
         id="path916-6" />
      <path
         style="fill:#000000;fill-opacity:1;stroke:#000000;stroke-width:0.228407px;stroke-linecap:butt;stroke-linejoin:miter;stroke-opacity:1"
         d="m 35.556589,50.101562 -0.07643,-0.254757 0.04441,-0.312635 c 0,0 -2.434573,-0.0092 -3.005638,0.101712 -0.661493,0.128494 3.037663,0.465679 3.037663,0.465679 z"
         id="path916-6-4" />
    </g>
    <path
       style="fill:none;stroke:#000000;stroke-width:0.165;stroke-linecap:butt;stroke-linejoin:miter;stroke-miterlimit:4;stroke-dasharray:none;stroke-opacity:1"
       d="m 22.194874,18.416253 h 1.889879"
       id="path974" />
    <path
       style="fill:none;stroke:#000000;stroke-width:0.165;stroke-linecap:butt;stroke-linejoin:miter;stroke-miterlimit:4;stroke-dasharray:none;stroke-opacity:1"
       d="m 21.904545,18.929645 h 1.889879"
       id="path974-1" />
    <path
       style="fill:none;stroke:#000000;stroke-width:0.165;stroke-linecap:butt;stroke-linejoin:miter;stroke-miterlimit:4;stroke-dasharray:none;stroke-opacity:1"
       d="m 21.653594,19.458117 h 1.889879"
       id="path974-1-5" />
  </g>
  <g
     id="layer7"
     transform="translate(-0.14316113,-0.54151047)">
    <g
       id="g1105"
       transform="matrix(0.88756198,0,0,0.98754884,-10.095317,-29.925157)">
      <rect
         style="fill:none;fill-opacity:1;fill-rule:nonzero;stroke:#000000;stroke-width:0.183209;stroke-miterlimit:4;stroke-dasharray:none;stroke-opacity:1"
         id="rect1007"
         width="2.8639157"
         height="1.9368246"
         x="28.651136"
         y="52.353588" />
      <rect
         style="fill:none;fill-opacity:1;fill-rule:nonzero;stroke:#000000;stroke-width:0.19;stroke-miterlimit:4;stroke-dasharray:none;stroke-opacity:1"
         id="rect1007-3"
         width="2.5765839"
         height="1.0564889"
         x="28.796232"
         y="51.288635" />
      <rect
         style="fill:none;fill-opacity:1;fill-rule:nonzero;stroke:#000000;stroke-width:0.19;stroke-miterlimit:4;stroke-dasharray:none;stroke-opacity:1"
         id="rect1007-3-5"
         width="2.5613434"
         height="1.3753352"
         x="28.803854"
         y="49.918144" />
      <rect
         style="fill:none;fill-opacity:1;fill-rule:nonzero;stroke:#000000;stroke-width:0.19;stroke-miterlimit:4;stroke-dasharray:none;stroke-opacity:1"
         id="rect1007-3-57"
         width="2.5765839"
         height="1.0564889"
         x="28.796234"
         y="48.866508" />
      <path
         style="fill:none;stroke:#000000;stroke-width:0.190611;stroke-linecap:butt;stroke-linejoin:miter;stroke-miterlimit:4;stroke-dasharray:none;stroke-opacity:1"
         d="m 31.353812,49.904619 -4.252794,2.466155"
         id="path1054" />
      <path
         style="fill:none;stroke:#000000;stroke-width:0.177633;stroke-linecap:butt;stroke-linejoin:miter;stroke-miterlimit:4;stroke-dasharray:none;stroke-opacity:1"
         d="m 28.795766,49.94948 4.149748,2.322407"
         id="path1056" />
      <path
         style="fill:none;stroke:#000000;stroke-width:0.185478;stroke-linecap:butt;stroke-linejoin:miter;stroke-miterlimit:4;stroke-dasharray:none;stroke-opacity:1"
         d="m 27.114441,52.264172 c 5.847275,0.05287 5.858402,0.04691 5.858402,0.04691"
         id="path1058" />
      <path
         style="fill:none;stroke:#000000;stroke-width:0.184097;stroke-linecap:butt;stroke-linejoin:miter;stroke-miterlimit:4;stroke-dasharray:none;stroke-opacity:1"
         d="M 31.528193,54.191885 28.588928,52.406346"
         id="path1060" />
      <path
         style="fill:none;stroke:#000000;stroke-width:0.185936;stroke-linecap:butt;stroke-linejoin:miter;stroke-miterlimit:4;stroke-dasharray:none;stroke-opacity:1"
         d="m 28.59549,54.276354 2.891718,-1.88074"
         id="path1062" />
      <path
         style="fill:none;stroke:#000000;stroke-width:0.19;stroke-linecap:butt;stroke-linejoin:miter;stroke-miterlimit:4;stroke-dasharray:none;stroke-opacity:1"
         d="m 28.808873,48.835704 -0.838634,1.086683 4.157736,-0.01773 -0.761857,-1.063056"
         id="path1064" />
      <path
         style="fill:none;stroke:#000000;stroke-width:0.19;stroke-linecap:butt;stroke-linejoin:miter;stroke-miterlimit:4;stroke-dasharray:none;stroke-opacity:1"
         d="M 27.134556,52.302456 V 52.63909"
         id="path1066" />
      <path
         style="fill:none;stroke:#000000;stroke-width:0.19;stroke-linecap:butt;stroke-linejoin:miter;stroke-miterlimit:4;stroke-dasharray:none;stroke-opacity:1"
         d="m 27.547967,52.314268 v 0.336634"
         id="path1076" />
      <path
         style="fill:none;stroke:#000000;stroke-width:0.19;stroke-linecap:butt;stroke-linejoin:miter;stroke-miterlimit:4;stroke-dasharray:none;stroke-opacity:1"
         d="m 32.550246,52.326081 v 0.336634"
         id="path1078" />
      <path
         style="fill:none;stroke:#000000;stroke-width:0.219393;stroke-linecap:butt;stroke-linejoin:miter;stroke-miterlimit:4;stroke-dasharray:none;stroke-opacity:1"
         d="m 32.91641,52.219775 v 0.448846"
         id="path1080" />
      <path
         style="fill:none;stroke:#000000;stroke-width:0.19;stroke-linecap:butt;stroke-linejoin:miter;stroke-miterlimit:4;stroke-dasharray:none;stroke-opacity:1"
         d="m 32.212597,49.981448 v 0.336634"
         id="path1082" />
      <path
         style="fill:none;stroke:#000000;stroke-width:0.19;stroke-linecap:butt;stroke-linejoin:miter;stroke-miterlimit:4;stroke-dasharray:none;stroke-opacity:1"
         d="m 27.87971,50.005071 v 0.336634"
         id="path1084" />
      <path
         style="fill:none;stroke:#000000;stroke-width:0.19;stroke-linecap:butt;stroke-linejoin:miter;stroke-miterlimit:4;stroke-dasharray:none;stroke-opacity:1"
         d="m 27.035946,54.305833 6.305964,0.02504"
         id="path1086" />
    </g>
  </g>
  <g
     id="layer8"
     transform="translate(-0.14316113,-0.54151047)">
    <g
       id="g922"
       transform="matrix(0.91650766,0,0,1.0021536,-3.6923112,-33.787195)">
      <path
         style="fill:none;stroke:#000000;stroke-width:0.264583px;stroke-linecap:butt;stroke-linejoin:miter;stroke-opacity:1"
         d="m 16.510291,50.283563 c 0.373893,0.0035 1.121409,0.01045 1.522199,-0.007 0.400789,-0.01741 0.455078,-0.05917 0.476647,-0.695918 0.02157,-0.636745 0.01045,-1.868609 0.009,-2.524034 -0.0014,-0.655425 0.0069,-0.734292 -0.433532,-0.773956 -0.440424,-0.03966 -1.329806,-0.03989 -1.772587,0.0025 -0.442781,0.04236 -0.438648,0.127035 -0.447834,0.779861 -0.0092,0.652827 -0.03167,1.873769 -0.01273,2.498737 0.01895,0.624968 0.07901,0.654048 0.133386,0.674101 0.05438,0.02005 0.103108,0.03117 0.127312,0.03669 0.0242,0.0055 0.02421,0.0055 0.398105,0.009 z"
         id="path909" />
      <rect
         style="fill:#000000;fill-opacity:1;stroke:#000000;stroke-width:0.161341;stroke-linecap:round;stroke-linejoin:miter;stroke-miterlimit:2.5;stroke-dasharray:none"
         id="rect913"
         width="2.3714976"
         height="2.9023333"
         x="16.000933"
         y="47.204178" />
      <rect
         style="fill:#000000;fill-opacity:1;stroke:#000000;stroke-width:0.122;stroke-linecap:round;stroke-linejoin:bevel;stroke-miterlimit:2.5;stroke-dasharray:none;paint-order:normal"
         id="rect915"
         width="0.95718634"
         height="0.25977999"
         x="16.717751"
         y="45.882229" />
    </g>
  </g>
  <g
     id="layer10"
     style="display:inline"
     transform="translate(-0.14316113,-0.54151047)">
    <text
       xml:space="preserve"
       id="text1515"
       style="font-style:normal;font-variant:normal;font-weight:normal;font-stretch:normal;font-size:9.87778px;line-height:1.25;font-family:Garamond;-inkscape-font-specification:Garamond;white-space:pre;shape-inside:url(#rect1517-4);fill:#000000;fill-opacity:1;stroke:none;"
       transform="translate(31.014662,-60.264755)"><tspan
         x="10.441406"
         y="68.138834"><tspan
           style="font-size:9.87778px">DISPATCHES</tspan></tspan></text>
    <text
       xml:space="preserve"
       id="text1551"
       style="font-style:normal;font-weight:normal;font-size:10.5833px;line-height:1.25;font-family:sans-serif;white-space:pre;shape-inside:url(#rect1553);fill:#000000;fill-opacity:1;stroke:none;" />
    <path
       style="fill:#000000;stroke:#000000;stroke-width:0.264583px;stroke-linecap:butt;stroke-linejoin:miter;stroke-opacity:1"
       d="m 40.090427,10.557143 60.536553,0.133636"
       id="path1564" />
  </g>
  <g
     id="layer11"
     style="display:inline"
     transform="translate(-0.14316113,-0.54151047)">
    <text
       xml:space="preserve"
       id="text1558"
       style="font-style:normal;font-variant:normal;font-weight:normal;font-stretch:normal;font-size:4.23333px;line-height:1.25;font-family:Calibri;-inkscape-font-specification:Calibri;text-align:center;white-space:pre;shape-inside:url(#rect1560);fill:#000000;fill-opacity:1;stroke:none;stroke-width:1;stroke-miterlimit:4;stroke-dasharray:none;"
       x="27.821535"
       y="0"
       transform="translate(14.418237,-32.473248)"><tspan
         x="56.133878"
         y="47.67096"><tspan
           style="font-style:normal;font-variant:normal;font-weight:normal;font-stretch:normal;font-size:4.23333px;font-family:Calibri;-inkscape-font-specification:Calibri;text-align:center;text-anchor:middle;fill:#000000;stroke-width:1;stroke-miterlimit:4;stroke-dasharray:none">Design Integration and Synthesis </tspan></tspan><tspan
         x="58.436578"
         y="52.962625"><tspan
           style="font-style:normal;font-variant:normal;font-weight:normal;font-stretch:normal;font-size:4.23333px;font-family:Calibri;-inkscape-font-specification:Calibri;text-align:center;text-anchor:middle;opacity:1;fill:#000000;stroke-width:1;stroke-miterlimit:4;stroke-dasharray:none">Platform to Advance Tightly     </tspan></tspan><tspan
         x="56.487344"
         y="58.254289"><tspan
           style="font-style:normal;font-variant:normal;font-weight:normal;font-stretch:normal;font-size:4.23333px;font-family:Calibri;-inkscape-font-specification:Calibri;text-align:center;text-anchor:middle;opacity:1;fill:#000000;stroke-width:1;stroke-miterlimit:4;stroke-dasharray:none">Coupled Hybrid Energy Systems  </tspan></tspan></text>
  </g>
  <g
     id="g1003"
     style="display:none"
     transform="translate(-0.14316113,-0.54151047)">
    <text
       xml:space="preserve"
       id="text997"
       style="font-style:normal;font-variant:normal;font-weight:normal;font-stretch:normal;font-size:9.87778px;line-height:1.25;font-family:Garamond;-inkscape-font-specification:Garamond;white-space:pre;shape-inside:url(#rect1005);fill:#000000;fill-opacity:1;stroke:none;"
       transform="translate(30.947845,-60.264754)"><tspan
         x="10.441406"
         y="68.138834"><tspan
           style="font-size:9.87778px;fill:#ffffff">DISPATCHES</tspan></tspan></text>
    <text
       xml:space="preserve"
       id="text999"
       style="font-style:normal;font-weight:normal;font-size:10.5833px;line-height:1.25;font-family:sans-serif;white-space:pre;shape-inside:url(#rect1008);fill:#000000;fill-opacity:1;stroke:none;" />
    <path
       style="fill:#666666;stroke:#666666;stroke-width:0.264583px;stroke-linecap:butt;stroke-linejoin:miter;stroke-opacity:1"
       d="M 40.224063,10.557144 100.76062,10.69078"
       id="path1001" />
  </g>
  <g
     id="g976"
     style="display:none"
     transform="translate(-0.14316113,-0.54151047)">
    <text
       xml:space="preserve"
       id="text974"
       style="font-style:normal;font-variant:normal;font-weight:normal;font-stretch:normal;font-size:4.23333px;line-height:1.25;font-family:Calibri;-inkscape-font-specification:Calibri;text-align:center;white-space:pre;shape-inside:url(#rect978);fill:#000000;fill-opacity:1;stroke:none;stroke-width:1;stroke-miterlimit:4;stroke-dasharray:none;"
       x="27.821535"
       y="0"
       transform="translate(14.383651,-32.467876)"><tspan
         x="56.133878"
         y="47.67096"><tspan
           style="font-style:normal;font-variant:normal;font-weight:normal;font-stretch:normal;font-size:4.23333px;font-family:Calibri;-inkscape-font-specification:Calibri;text-align:center;text-anchor:middle;fill:#cccccc;stroke-width:1;stroke-miterlimit:4;stroke-dasharray:none">Design Integration and Synthesis </tspan></tspan><tspan
         x="58.436578"
         y="52.962625"><tspan
           style="font-style:normal;font-variant:normal;font-weight:normal;font-stretch:normal;font-size:4.23333px;font-family:Calibri;-inkscape-font-specification:Calibri;text-align:center;text-anchor:middle;opacity:1;fill:#cccccc;stroke-width:1;stroke-miterlimit:4;stroke-dasharray:none">Platform to Advance Tightly     </tspan></tspan><tspan
         x="56.487344"
         y="58.254289"><tspan
           style="font-style:normal;font-variant:normal;font-weight:normal;font-stretch:normal;font-size:4.23333px;font-family:Calibri;-inkscape-font-specification:Calibri;text-align:center;text-anchor:middle;opacity:1;fill:#cccccc;stroke-width:1;stroke-miterlimit:4;stroke-dasharray:none">Coupled Hybrid Energy Systems  </tspan></tspan></text>
  </g>
  <g
     id="layer3"
     transform="translate(-0.14316113,-0.54151047)">
    <ellipse
       style="fill:#3366ff;fill-opacity:1;stroke:#000000;stroke-width:0.182362;stroke-miterlimit:4;stroke-dasharray:none;stroke-opacity:1"
       id="path915"
       cx="15.648686"
       cy="9.9922962"
       rx="0.56539685"
       ry="0.50529271" />
    <path
       style="fill:#000000;fill-opacity:1;stroke:#000000;stroke-width:0.0764882px;stroke-linecap:butt;stroke-linejoin:miter;stroke-opacity:1"
       d="m 14.86049,9.8116231 -0.778307,-2.08794 c 0,0 -0.136221,-0.0042 -0.208281,-0.0434 -0.100841,-0.05485 -0.153468,-0.272922 -0.153468,-0.272922 l 5.79894,0.02365 c 0,0 -0.04259,0.212265 -0.142507,0.271715 -0.0671,0.03992 -0.252128,0.0245 -0.252128,0.0245 l -0.800232,2.124049 c 0,0 -0.04341,-0.290339 -0.153469,-0.40056 -0.135866,-0.136064 -0.309427,-0.270429 -0.570028,-0.266111 -0.291784,0.0048 -0.568626,0.06434 -0.712535,0.260881 -0.06136,0.0838 -0.09866,0.399532 -0.09866,0.399532 l -0.361748,-0.01 c 0,0 -0.03039,-0.342597 -0.175394,-0.460215 -0.144404,-0.117132 -0.405725,-0.186695 -0.613876,-0.181197 -0.207381,0.0055 -0.416855,0.0937 -0.559066,0.210452 -0.130198,0.106893 -0.219241,0.407548 -0.219241,0.407548 z"
       id="path919" />
    <path
       style="fill:#000000;fill-opacity:1;stroke:#000000;stroke-width:0.0819672px;stroke-linecap:butt;stroke-linejoin:miter;stroke-opacity:1"
       d="m 13.757842,7.2246441 0.927254,-1.134141 c 0,0 0.102842,-0.1065115 0.130129,-0.04133 -0.08102,0.06955 -0.08402,0.168274 -0.08402,0.168274 l 1.099841,1.013906 z"
       id="path921" />
    <path
       style="fill:#000000;fill-opacity:1;stroke:#000000;stroke-width:0.0819517px;stroke-linecap:butt;stroke-linejoin:miter;stroke-opacity:1"
       d="M 19.453295,7.2338471 18.52603,6.1001451 c 0,0 -0.199269,-0.07524 -0.13013,-0.04132 0.02316,0.04177 0.08402,0.168209 0.08402,0.168209 l -1.099853,1.013514 z"
       id="path923" />
    <path
       style="fill:#000000;fill-opacity:1;stroke:#000000;stroke-width:0.0781675px;stroke-linecap:butt;stroke-linejoin:miter;stroke-opacity:1"
       d="m 16.110754,7.2304871 c 0,0 -1.13001,-0.935338 -1.128279,-1.035264 0.0019,-0.112969 1.368442,-1.0488645 1.583749,-1.0441005 0.181544,0.004 1.658265,0.9439035 1.656171,1.0441005 -0.0021,0.10313 -1.169684,1.044675 -1.169684,1.044675 z"
       id="path925" />
    <ellipse
       style="fill:#3366ff;fill-opacity:1;stroke:#000000;stroke-width:0.182362;stroke-miterlimit:4;stroke-dasharray:none;stroke-opacity:1"
       id="ellipse952"
       cx="17.54463"
       cy="9.9755917"
       rx="0.56539685"
       ry="0.50529271" />
  </g>
  <g
     id="layer4"
     transform="translate(-0.14316113,-0.54151047)">
    <g
       id="g881"
       transform="matrix(0.26760236,0,0,0.27639127,20.889907,2.7508356)">
      <path
         style="fill:none;stroke:#000000;stroke-width:0.750001;stroke-miterlimit:3"
         id="path862"
         d="M 15.434815,18.87591 A 3.1237125,10.356693 0 0 1 12.31203,29.232603 3.1237125,10.356693 0 0 1 9.1873909,18.882056 3.1237125,10.356693 0 0 1 12.308322,8.5192206 3.1237125,10.356693 0 0 1 15.434813,18.863618" />
      <path
         style="fill:none;stroke:#000000;stroke-width:0.750001;stroke-miterlimit:3"
         id="path864"
         d="M 25.271332,-1.5444266 A 3.1237125,10.356693 0 0 1 22.148546,8.8122663 3.1237125,10.356693 0 0 1 19.023907,-1.5382809 3.1237125,10.356693 0 0 1 22.144839,-11.901116 3.1237125,10.356693 0 0 1 25.27133,-1.556718"
         transform="rotate(60)" />
      <path
         style="fill:none;stroke:#000000;stroke-width:0.750001;stroke-miterlimit:3"
         id="path866"
         d="M 12.875524,-20.193031 A 3.1237125,10.356693 0 0 1 9.7527378,-9.8363385 3.1237125,10.356693 0 0 1 6.628099,-20.186886 3.1237125,10.356693 0 0 1 9.7490306,-30.54972 3.1237125,10.356693 0 0 1 12.875521,-20.205323"
         transform="rotate(120)" />
      <path
         style="fill:none;stroke:#000000;stroke-width:0.7;stroke-miterlimit:3;stroke-dasharray:none"
         id="path868"
         d="m 13.775735,18.374777 a 1.4646299,1.5815603 0 0 1 -1.464196,1.58156 1.4646299,1.5815603 0 0 1 -1.465064,-1.580622 1.4646299,1.5815603 0 0 1 1.463326,-1.582498 1.4646299,1.5815603 0 0 1 1.465933,1.579683" />
    </g>
  </g>
  <g
     id="layer5"
     transform="translate(-0.14316113,-0.54151047)">
    <g
       id="g895"
       transform="matrix(0.44817302,0,0,0.4307508,23.263324,1.9718096)">
      <path
         style="fill:none;stroke:#000000;stroke-width:0.4;stroke-miterlimit:3;stroke-dasharray:none"
         id="path884"
         d="M 16.767582,29.83396 A 6.2438445,6.1436186 0 0 1 10.52559,35.977578 6.2438445,6.1436186 0 0 1 4.2798945,29.837605 6.2438445,6.1436186 0 0 1 10.51818,23.690343 6.2438445,6.1436186 0 0 1 16.767578,29.826668" />
      <path
         style="fill:#000000;fill-opacity:1;stroke:#000000;stroke-width:0.52732;stroke-miterlimit:3;stroke-dasharray:none"
         id="path886"
         d="m 12.240364,23.351961 a 0.73774952,0.72117448 0 0 1 -0.73753,0.721175 0.73774952,0.72117448 0 0 1 -0.737968,-0.720747 0.73774952,0.72117448 0 0 1 0.737092,-0.721602 0.73774952,0.72117448 0 0 1 0.738406,0.720318"
         transform="matrix(0.99932737,0.03667158,-0.04158709,0.99913488,0,0)" />
      <path
         style="fill:#000000;fill-opacity:1;stroke:#000000;stroke-width:1.2059;stroke-miterlimit:3;stroke-dasharray:none"
         id="path890"
         d="M 12.191791,29.83396 A 1.6680528,1.6680528 0 0 1 10.524233,31.502012 1.6680528,1.6680528 0 0 1 8.8556854,29.834949 1.6680528,1.6680528 0 0 1 10.522253,28.165907 1.6680528,1.6680528 0 0 1 12.19179,29.83198" />
    </g>
  </g>
</svg>
